<?xml version="1.0" encoding="utf-8"?>
<!-- Generator: Adobe Illustrator 27.0.0, SVG Export Plug-In . SVG Version: 6.00 Build 0)  -->
<svg version="1.1" id="Layer_1" xmlns="http://www.w3.org/2000/svg" xmlns:xlink="http://www.w3.org/1999/xlink" x="0px" y="0px"
	 viewBox="0 0 512 512" style="enable-background:new 0 0 512 512;" xml:space="preserve">
<style type="text/css">
	.st0{fill:#231F20;}
</style>
<g id="XMLID_1_">
	<path id="XMLID_2_" class="st0" d="M384.91,353.21h63.54V200.59l-71.54-71.54l-44.89,44.89l53.02,53.02v126.25H384.91z
		 M448.6,385.05h-92.58H226.82l-53.02-53.02l22.44-22.44l43.77,43.77h90.06l-88.51-88.93l22.58-22.58l88.65,88.65v-90.06
		l-43.48-43.48l22.3-22.3L221.49,63.96H112.78H0l63.4,63.4v0.14h0.28h131.16l46.43,46.43l-67.89,67.89l-46.43-46.43v-36.05H63.4
		v62.42l109.97,109.97l-44.75,44.75l71.54,71.54h108.71H512L448.6,385.05z"/>
</g>
</svg>
